# This file uses centimeters as units for non-parametric coordinates.

v 0.507357 -0.425000 -0.210154
v 0.388314 -0.425000 -0.388314
v 0.210154 -0.425000 -0.507357
v 0.000000 -0.425000 -0.549159
v -0.210154 -0.425000 -0.507357
v -0.388314 -0.425000 -0.388314
v -0.507357 -0.425000 -0.210154
v -0.549159 -0.425000 -0.000000
v -0.507357 -0.425000 0.210154
v -0.388314 -0.425000 0.388314
v -0.210154 -0.425000 0.507357
v -0.000000 -0.425000 0.549159
v 0.210154 -0.425000 0.507357
v 0.388314 -0.425000 0.388314
v 0.507357 -0.425000 0.210154
v 0.549159 -0.425000 0.000000
v 0.923880 -0.425000 -0.382683
v 0.707107 -0.425000 -0.707106
v 0.382684 -0.425000 -0.923879
v 0.000001 -0.425000 -1.000000
v -0.382683 -0.425000 -0.923880
v -0.707106 -0.425000 -0.707107
v -0.923879 -0.425000 -0.382684
v -1.000000 -0.425000 -0.000000
v -0.923880 -0.425000 0.382683
v -0.707107 -0.425000 0.707107
v -0.382684 -0.425000 0.923879
v -0.000000 -0.425000 1.000000
v 0.382683 -0.425000 0.923880
v 0.707107 -0.425000 0.707107
v 0.923880 -0.425000 0.382683
v 1.000000 -0.425000 0.000000
v 0.923880 0.425000 -0.382683
v 0.707107 0.425000 -0.707106
v 0.382684 0.425000 -0.923879
v 0.000001 0.425000 -1.000000
v -0.382683 0.425000 -0.923880
v -0.707106 0.425000 -0.707107
v -0.923879 0.425000 -0.382684
v -1.000000 0.425000 -0.000000
v -0.923880 0.425000 0.382683
v -0.707107 0.425000 0.707107
v -0.382684 0.425000 0.923879
v -0.000000 0.425000 1.000000
v 0.382683 0.425000 0.923880
v 0.707107 0.425000 0.707107
v 0.923880 0.425000 0.382683
v 1.000000 0.425000 0.000000
v 0.507357 0.425000 -0.210154
v 0.388314 0.425000 -0.388314
v 0.210154 0.425000 -0.507357
v 0.000000 0.425000 -0.549159
v -0.210154 0.425000 -0.507357
v -0.388314 0.425000 -0.388314
v -0.507357 0.425000 -0.210154
v -0.549159 0.425000 -0.000000
v -0.507357 0.425000 0.210154
v -0.388314 0.425000 0.388314
v -0.210154 0.425000 0.507357
v -0.000000 0.425000 0.549159
v 0.210154 0.425000 0.507357
v 0.388314 0.425000 0.388314
v 0.507357 0.425000 0.210154
v 0.549159 0.425000 0.000000
v 1.196508 -0.425000 -0.631103
v 1.040948 -0.425000 -0.863916
v 1.040948 0.425000 -0.863916
v 1.196508 0.425000 -0.631103
v 0.399802 -0.425000 -1.292317
v 0.125181 -0.425000 -1.346942
v 0.125181 0.425000 -1.346942
v 0.399802 0.425000 -1.292317
v -0.631103 -0.425000 -1.196508
v -0.863916 -0.425000 -1.040948
v -0.863916 0.425000 -1.040948
v -0.631103 0.425000 -1.196508
v -1.292317 -0.425000 -0.399802
v -1.346942 -0.425000 -0.125181
v -1.346942 0.425000 -0.125181
v -1.292317 0.425000 -0.399802
v -1.196508 -0.425000 0.631104
v -1.040948 -0.425000 0.863916
v -1.040948 0.425000 0.863916
v -1.196508 0.425000 0.631104
v -0.399801 -0.425000 1.292317
v -0.125180 -0.425000 1.346942
v -0.125180 0.425000 1.346942
v -0.399801 0.425000 1.292317
v 0.631104 -0.425000 1.196508
v 0.863916 -0.425000 1.040948
v 0.863916 0.425000 1.040948
v 0.631104 0.425000 1.196508
v 1.292317 -0.425000 0.399801
v 1.346942 -0.425000 0.125180
v 1.346942 0.425000 0.125180
v 1.292317 0.425000 0.399801
vt 0.596237 0.116387
vt 0.573657 0.082593
vt 0.539863 0.060013
vt 0.500000 0.052083
vt 0.460137 0.060013
vt 0.426343 0.082593
vt 0.403763 0.116387
vt 0.395833 0.156250
vt 0.403763 0.196113
vt 0.426343 0.229907
vt 0.460137 0.252487
vt 0.500000 0.260417
vt 0.539863 0.252487
vt 0.573657 0.229907
vt 0.596237 0.196113
vt 0.604167 0.156250
vt 0.644356 0.096456
vt 0.610485 0.045765
vt 0.559794 0.011894
vt 0.500000 0.000000
vt 0.440206 0.011894
vt 0.389515 0.045765
vt 0.355644 0.096456
vt 0.343750 0.156250
vt 0.355644 0.216044
vt 0.389515 0.266735
vt 0.440206 0.300606
vt 0.500000 0.312500
vt 0.559794 0.300606
vt 0.610485 0.266735
vt 0.644356 0.216044
vt 0.656250 0.156250
vt 0.375000 0.312500
vt 0.390625 0.312500
vt 0.406250 0.312500
vt 0.421875 0.312500
vt 0.437500 0.312500
vt 0.453125 0.312500
vt 0.468750 0.312500
vt 0.484375 0.312500
vt 0.500000 0.312500
vt 0.515625 0.312500
vt 0.531250 0.312500
vt 0.546875 0.312500
vt 0.562500 0.312500
vt 0.578125 0.312500
vt 0.593750 0.312500
vt 0.609375 0.312500
vt 0.625000 0.312500
vt 0.375000 0.688440
vt 0.390625 0.688440
vt 0.406250 0.688440
vt 0.421875 0.688440
vt 0.437500 0.688440
vt 0.453125 0.688440
vt 0.468750 0.688440
vt 0.484375 0.688440
vt 0.500000 0.688440
vt 0.515625 0.688440
vt 0.531250 0.688440
vt 0.546875 0.688440
vt 0.562500 0.688440
vt 0.578125 0.688440
vt 0.593750 0.688440
vt 0.609375 0.688440
vt 0.625000 0.688440
vt 0.644356 0.783956
vt 0.610485 0.733265
vt 0.559794 0.699394
vt 0.500000 0.687500
vt 0.440206 0.699394
vt 0.389515 0.733265
vt 0.355644 0.783956
vt 0.343750 0.843750
vt 0.355644 0.903544
vt 0.389515 0.954235
vt 0.440206 0.988106
vt 0.500000 1.000000
vt 0.559794 0.988106
vt 0.610485 0.954235
vt 0.644356 0.903544
vt 0.656250 0.843750
vt 0.596237 0.803887
vt 0.573657 0.770093
vt 0.539863 0.747513
vt 0.500000 0.739583
vt 0.460137 0.747513
vt 0.426343 0.770093
vt 0.403763 0.803887
vt 0.395833 0.843750
vt 0.403763 0.883613
vt 0.426343 0.917407
vt 0.460137 0.939987
vt 0.500000 0.947917
vt 0.539863 0.939987
vt 0.573657 0.917407
vt 0.596237 0.883613
vt 0.604167 0.843750
vt 0.375000 0.312500
vt 0.390625 0.312500
vt 0.390625 0.688440
vt 0.375000 0.688440
vt 0.406250 0.312500
vt 0.421875 0.312500
vt 0.421875 0.688440
vt 0.406250 0.688440
vt 0.437500 0.312500
vt 0.453125 0.312500
vt 0.453125 0.688440
vt 0.437500 0.688440
vt 0.468750 0.312500
vt 0.484375 0.312500
vt 0.484375 0.688440
vt 0.468750 0.688440
vt 0.500000 0.312500
vt 0.515625 0.312500
vt 0.515625 0.688440
vt 0.500000 0.688440
vt 0.531250 0.312500
vt 0.546875 0.312500
vt 0.546875 0.688440
vt 0.531250 0.688440
vt 0.562500 0.312500
vt 0.578125 0.312500
vt 0.578125 0.688440
vt 0.562500 0.688440
vt 0.593750 0.312500
vt 0.609375 0.312500
vt 0.609375 0.688440
vt 0.593750 0.688440
vn 0.000000 -1.000000 0.000000
vn 0.000000 -1.000000 0.000000
vn 0.000000 -1.000000 -0.000000
vn 0.000000 -1.000000 -0.000000
vn 0.000000 -1.000000 0.000000
vn 0.000000 -1.000000 -0.000000
vn 0.000000 -1.000000 -0.000000
vn 0.000000 -1.000000 -0.000000
vn 0.000000 -1.000000 -0.000000
vn 0.000000 -1.000000 -0.000000
vn 0.000000 -1.000000 -0.000000
vn 0.000000 -1.000000 0.000000
vn 0.000000 -1.000000 0.000000
vn 0.000000 -1.000000 0.000000
vn 0.000000 -1.000000 0.000000
vn 0.000000 -1.000000 0.000000
vn 0.000000 -1.000000 -0.000000
vn 0.000000 -1.000000 -0.000000
vn 0.000000 -1.000000 0.000000
vn 0.000000 -1.000000 0.000000
vn 0.000000 -1.000000 0.000000
vn 0.000000 -1.000000 0.000000
vn 0.000000 -1.000000 0.000000
vn 0.000000 -1.000000 0.000000
vn 0.000000 -1.000000 0.000000
vn 0.000000 -1.000000 0.000000
vn 0.000000 -1.000000 0.000000
vn 0.000000 -1.000000 0.000000
vn 0.000000 -1.000000 0.000000
vn 0.000000 -1.000000 0.000000
vn 0.000000 -1.000000 0.000000
vn 0.000000 -1.000000 0.000000
vn 0.831470 0.000000 -0.555570
vn 0.831470 0.000000 -0.555570
vn 0.831470 0.000000 -0.555570
vn 0.831470 0.000000 -0.555570
vn 0.555571 0.000000 -0.831469
vn 0.555571 0.000000 -0.831469
vn 0.555571 0.000000 -0.831469
vn 0.555571 0.000000 -0.831469
vn 0.195091 0.000000 -0.980785
vn 0.195091 0.000000 -0.980785
vn 0.195091 0.000000 -0.980785
vn 0.195091 0.000000 -0.980785
vn -0.195090 0.000000 -0.980785
vn -0.195090 0.000000 -0.980785
vn -0.195090 0.000000 -0.980785
vn -0.195090 0.000000 -0.980785
vn -0.555570 0.000000 -0.831470
vn -0.555570 0.000000 -0.831470
vn -0.555570 0.000000 -0.831470
vn -0.555570 0.000000 -0.831470
vn -0.831469 0.000000 -0.555571
vn -0.831469 0.000000 -0.555571
vn -0.831469 0.000000 -0.555571
vn -0.831469 0.000000 -0.555571
vn -0.980785 0.000000 -0.195091
vn -0.980785 0.000000 -0.195091
vn -0.980785 0.000000 -0.195091
vn -0.980785 0.000000 -0.195091
vn -0.980785 0.000000 0.195090
vn -0.980785 0.000000 0.195090
vn -0.980785 0.000000 0.195090
vn -0.980785 0.000000 0.195090
vn -0.831470 0.000000 0.555570
vn -0.831470 0.000000 0.555570
vn -0.831470 0.000000 0.555570
vn -0.831470 0.000000 0.555570
vn -0.555570 0.000000 0.831469
vn -0.555570 0.000000 0.831469
vn -0.555570 0.000000 0.831469
vn -0.555570 0.000000 0.831469
vn -0.195090 0.000000 0.980785
vn -0.195090 0.000000 0.980785
vn -0.195090 0.000000 0.980785
vn -0.195090 0.000000 0.980785
vn 0.195090 0.000000 0.980785
vn 0.195090 0.000000 0.980785
vn 0.195090 0.000000 0.980785
vn 0.195090 0.000000 0.980785
vn 0.555570 0.000000 0.831470
vn 0.555570 0.000000 0.831470
vn 0.555570 0.000000 0.831470
vn 0.555570 0.000000 0.831470
vn 0.831470 0.000000 0.555570
vn 0.831470 0.000000 0.555570
vn 0.831470 0.000000 0.555570
vn 0.831470 0.000000 0.555570
vn 0.980785 0.000000 0.195091
vn 0.980785 0.000000 0.195091
vn 0.980785 0.000000 0.195091
vn 0.980785 0.000000 0.195091
vn 0.980785 0.000000 -0.195090
vn 0.980785 0.000000 -0.195090
vn 0.980785 0.000000 -0.195090
vn 0.980785 0.000000 -0.195090
vn 0.000000 1.000000 0.000000
vn 0.000000 1.000000 0.000000
vn 0.000000 1.000000 0.000000
vn 0.000000 1.000000 0.000000
vn 0.000000 1.000000 0.000000
vn 0.000000 1.000000 0.000000
vn 0.000000 1.000000 -0.000000
vn 0.000000 1.000000 0.000000
vn 0.000000 1.000000 -0.000000
vn 0.000000 1.000000 -0.000000
vn 0.000000 1.000000 0.000000
vn 0.000000 1.000000 -0.000000
vn 0.000000 1.000000 0.000000
vn 0.000000 1.000000 0.000000
vn 0.000000 1.000000 0.000000
vn 0.000000 1.000000 0.000000
vn 0.000000 1.000000 0.000000
vn 0.000000 1.000000 -0.000000
vn 0.000000 1.000000 0.000000
vn 0.000000 1.000000 0.000000
vn 0.000000 1.000000 0.000000
vn 0.000000 1.000000 0.000000
vn 0.000000 1.000000 0.000000
vn 0.000000 1.000000 0.000000
vn 0.000000 1.000000 -0.000000
vn 0.000000 1.000000 -0.000000
vn 0.000000 1.000000 0.000000
vn 0.000000 1.000000 0.000000
vn 0.000000 1.000000 0.000000
vn 0.000000 1.000000 -0.000000
vn 0.000000 1.000000 -0.000000
vn 0.000000 1.000000 -0.000000
vn 0.000000 -1.000000 -0.000000
vn 0.000000 -1.000000 -0.000000
vn -0.425148 0.000000 -0.905124
vn -0.425148 0.000000 -0.905124
vn -0.425148 0.000000 -0.905124
vn -0.425148 0.000000 -0.905124
vn 0.000000 1.000000 0.000000
vn 0.000000 1.000000 0.000000
vn 0.673528 0.000000 0.739162
vn 0.673528 0.000000 0.739162
vn 0.673528 0.000000 0.739162
vn 0.673528 0.000000 0.739162
vn 0.000000 -1.000000 -0.000000
vn 0.000000 -1.000000 -0.000000
vn -0.940644 0.000000 -0.339394
vn -0.940644 0.000000 -0.339394
vn -0.940644 0.000000 -0.339394
vn -0.940644 0.000000 -0.339394
vn 0.000000 1.000000 -0.000000
vn 0.000000 1.000000 -0.000000
vn 0.998922 0.000000 0.046410
vn 0.998922 0.000000 0.046410
vn 0.998922 0.000000 0.046410
vn 0.998922 0.000000 0.046410
vn 0.000000 -1.000000 0.000000
vn 0.000000 -1.000000 0.000000
vn -0.905124 0.000000 0.425148
vn -0.905124 0.000000 0.425148
vn -0.905124 0.000000 0.425148
vn -0.905124 0.000000 0.425148
vn 0.000000 1.000000 0.000000
vn 0.000000 1.000000 0.000000
vn 0.739162 0.000000 -0.673528
vn 0.739162 0.000000 -0.673528
vn 0.739162 0.000000 -0.673528
vn 0.739162 0.000000 -0.673528
vn 0.000000 -1.000000 0.000000
vn 0.000000 -1.000000 0.000000
vn -0.339394 0.000000 0.940644
vn -0.339394 0.000000 0.940644
vn -0.339394 0.000000 0.940644
vn -0.339394 0.000000 0.940644
vn 0.000000 1.000000 0.000000
vn 0.000000 1.000000 0.000000
vn 0.046410 0.000000 -0.998923
vn 0.046410 0.000000 -0.998923
vn 0.046410 0.000000 -0.998923
vn 0.046410 0.000000 -0.998923
vn 0.000000 -1.000000 0.000000
vn 0.000000 -1.000000 0.000000
vn 0.425148 0.000000 0.905124
vn 0.425148 0.000000 0.905124
vn 0.425148 0.000000 0.905124
vn 0.425148 0.000000 0.905124
vn 0.000000 1.000000 0.000000
vn 0.000000 1.000000 0.000000
vn -0.673528 0.000000 -0.739162
vn -0.673528 0.000000 -0.739162
vn -0.673528 0.000000 -0.739162
vn -0.673528 0.000000 -0.739162
vn 0.000000 -1.000000 0.000000
vn 0.000000 -1.000000 0.000000
vn 0.940644 0.000000 0.339394
vn 0.940644 0.000000 0.339394
vn 0.940644 0.000000 0.339394
vn 0.940644 0.000000 0.339394
vn 0.000000 1.000000 -0.000000
vn 0.000000 1.000000 -0.000000
vn -0.998923 0.000000 -0.046410
vn -0.998923 0.000000 -0.046410
vn -0.998923 0.000000 -0.046410
vn -0.998923 0.000000 -0.046410
vn 0.000000 -1.000000 0.000000
vn 0.000000 -1.000000 0.000000
vn 0.905124 0.000000 -0.425148
vn 0.905124 0.000000 -0.425148
vn 0.905124 0.000000 -0.425148
vn 0.905124 0.000000 -0.425148
vn 0.000000 1.000000 0.000000
vn 0.000000 1.000000 0.000000
vn -0.739162 0.000000 0.673528
vn -0.739162 0.000000 0.673528
vn -0.739162 0.000000 0.673528
vn -0.739162 0.000000 0.673528
vn 0.000000 -1.000000 0.000000
vn 0.000000 -1.000000 0.000000
vn 0.339394 0.000000 -0.940644
vn 0.339394 0.000000 -0.940644
vn 0.339394 0.000000 -0.940644
vn 0.339394 0.000000 -0.940644
vn 0.000000 1.000000 0.000000
vn 0.000000 1.000000 0.000000
vn -0.046410 0.000000 0.998923
vn -0.046410 0.000000 0.998923
vn -0.046410 0.000000 0.998923
vn -0.046410 0.000000 0.998923
vn -0.707107 0.000000 0.707107
vn -0.923880 0.000000 0.382683
vn -0.923880 0.000000 0.382683
vn -0.707107 0.000000 0.707107
vn -1.000000 0.000000 -0.000000
vn -1.000000 0.000000 -0.000000
vn -0.923880 0.000000 -0.382683
vn -0.923880 0.000000 -0.382683
vn -0.707107 0.000000 -0.707107
vn -0.707107 0.000000 -0.707107
vn -0.382683 0.000000 -0.923880
vn -0.382683 0.000000 -0.923880
vn 0.000000 0.000000 -1.000000
vn 0.000000 0.000000 -1.000000
vn 0.382684 0.000000 -0.923880
vn 0.382684 0.000000 -0.923880
vn 0.707107 0.000000 -0.707107
vn 0.707107 0.000000 -0.707107
vn 0.923880 0.000000 -0.382683
vn 0.923880 0.000000 -0.382683
vn 1.000000 0.000000 0.000000
vn 1.000000 0.000000 0.000000
vn 0.923879 0.000000 0.382684
vn 0.923879 0.000000 0.382684
vn 0.707106 0.000000 0.707107
vn 0.707106 0.000000 0.707107
vn 0.382683 0.000000 0.923880
vn 0.382683 0.000000 0.923880
vn -0.000001 0.000000 1.000000
vn -0.000001 0.000000 1.000000
vn -0.382684 0.000000 0.923879
vn -0.382684 0.000000 0.923879
s 1
f 1/1/1 2/2/2 18/18/3 17/17/4
f 2/2/2 3/3/5 19/19/6 18/18/3
f 3/3/5 4/4/7 20/20/8 19/19/6
f 4/4/7 5/5/9 21/21/10 20/20/8
f 5/5/9 6/6/11 22/22/12 21/21/10
f 6/6/11 7/7/13 23/23/14 22/22/12
f 7/7/13 8/8/15 24/24/16 23/23/14
f 8/8/15 9/9/17 25/25/18 24/24/16
f 9/9/17 10/10/19 26/26/20 25/25/18
f 10/10/19 11/11/21 27/27/22 26/26/20
f 11/11/21 12/12/23 28/28/24 27/27/22
f 12/12/23 13/13/25 29/29/26 28/28/24
f 13/13/25 14/14/27 30/30/28 29/29/26
f 14/14/27 15/15/29 31/31/30 30/30/28
f 15/15/29 16/16/31 32/32/32 31/31/30
f 16/16/31 1/1/1 17/17/4 32/32/32
s off
f 65/99/33 66/100/34 67/101/35 68/102/36
f 18/34/37 19/35/38 35/52/39 34/51/40
f 69/103/41 70/104/42 71/105/43 72/106/44
f 20/36/45 21/37/46 37/54/47 36/53/48
f 73/107/49 74/108/50 75/109/51 76/110/52
f 22/38/53 23/39/54 39/56/55 38/55/56
f 77/111/57 78/112/58 79/113/59 80/114/60
f 24/40/61 25/41/62 41/58/63 40/57/64
f 81/115/65 82/116/66 83/117/67 84/118/68
f 26/42/69 27/43/70 43/60/71 42/59/72
f 85/119/73 86/120/74 87/121/75 88/122/76
f 28/44/77 29/45/78 45/62/79 44/61/80
f 89/123/81 90/124/82 91/125/83 92/126/84
f 30/46/85 31/47/86 47/64/87 46/63/88
f 93/127/89 94/128/90 95/129/91 96/130/92
f 32/48/93 17/49/94 33/66/95 48/65/96
s 2
f 33/81/97 34/80/98 50/96/99 49/97/100
f 34/80/98 35/79/101 51/95/102 50/96/99
f 35/79/101 36/78/103 52/94/104 51/95/102
f 36/78/103 37/77/105 53/93/106 52/94/104
f 37/77/105 38/76/107 54/92/108 53/93/106
f 38/76/107 39/75/109 55/91/110 54/92/108
f 39/75/109 40/74/111 56/90/112 55/91/110
f 40/74/111 41/73/113 57/89/114 56/90/112
f 41/73/113 42/72/115 58/88/116 57/89/114
f 42/72/115 43/71/117 59/87/118 58/88/116
f 43/71/117 44/70/119 60/86/120 59/87/118
f 44/70/119 45/69/121 61/85/122 60/86/120
f 45/69/121 46/68/123 62/84/124 61/85/122
f 46/68/123 47/67/125 63/83/126 62/84/124
f 47/67/125 48/82/127 64/98/128 63/83/126
f 48/82/127 33/81/97 49/97/100 64/98/128
s 1
f 17/33/4 18/34/3 66/100/129 65/99/130
s off
f 18/34/131 34/51/132 67/101/133 66/100/134
s 2
f 34/51/98 33/50/97 68/102/135 67/101/136
s off
f 33/50/137 17/33/138 65/99/139 68/102/140
s 1
f 19/35/6 20/36/8 70/104/141 69/103/142
s off
f 20/36/143 36/53/144 71/105/145 70/104/146
s 2
f 36/53/103 35/52/101 72/106/147 71/105/148
s off
f 35/52/149 19/35/150 69/103/151 72/106/152
s 1
f 21/37/10 22/38/12 74/108/153 73/107/154
s off
f 22/38/155 38/55/156 75/109/157 74/108/158
s 2
f 38/55/107 37/54/105 76/110/159 75/109/160
s off
f 37/54/161 21/37/162 73/107/163 76/110/164
s 1
f 23/39/14 24/40/16 78/112/165 77/111/166
s off
f 24/40/167 40/57/168 79/113/169 78/112/170
s 2
f 40/57/111 39/56/109 80/114/171 79/113/172
s off
f 39/56/173 23/39/174 77/111/175 80/114/176
s 1
f 25/41/18 26/42/20 82/116/177 81/115/178
s off
f 26/42/179 42/59/180 83/117/181 82/116/182
s 2
f 42/59/115 41/58/113 84/118/183 83/117/184
s off
f 41/58/185 25/41/186 81/115/187 84/118/188
s 1
f 27/43/22 28/44/24 86/120/189 85/119/190
s off
f 28/44/191 44/61/192 87/121/193 86/120/194
s 2
f 44/61/119 43/60/117 88/122/195 87/121/196
s off
f 43/60/197 27/43/198 85/119/199 88/122/200
s 1
f 29/45/26 30/46/28 90/124/201 89/123/202
s off
f 30/46/203 46/63/204 91/125/205 90/124/206
s 2
f 46/63/123 45/62/121 92/126/207 91/125/208
s off
f 45/62/209 29/45/210 89/123/211 92/126/212
s 1
f 31/47/30 32/48/32 94/128/213 93/127/214
s off
f 32/48/215 48/65/216 95/129/217 94/128/218
s 2
f 48/65/127 47/64/125 96/130/219 95/129/220
s off
f 47/64/221 31/47/222 93/127/223 96/130/224
s 3
f 2/2/225 1/1/226 49/97/227 50/96/228
f 1/1/226 16/16/229 64/98/230 49/97/227
f 16/16/229 15/15/231 63/83/232 64/98/230
f 15/15/231 14/14/233 62/84/234 63/83/232
f 14/14/233 13/13/235 61/85/236 62/84/234
f 13/13/235 12/12/237 60/86/238 61/85/236
f 12/12/237 11/11/239 59/87/240 60/86/238
f 11/11/239 10/10/241 58/88/242 59/87/240
f 10/10/241 9/9/243 57/89/244 58/88/242
f 9/9/243 8/8/245 56/90/246 57/89/244
f 8/8/245 7/7/247 55/91/248 56/90/246
f 7/7/247 6/6/249 54/92/250 55/91/248
f 6/6/249 5/5/251 53/93/252 54/92/250
f 5/5/251 4/4/253 52/94/254 53/93/252
f 4/4/253 3/3/255 51/95/256 52/94/254
f 3/3/255 2/2/225 50/96/228 51/95/256
